<?xml version="1.0" encoding="utf-8"?>
<svg xmlns="http://www.w3.org/2000/svg" viewBox="42.6 85.1 526.8 91.8189" width="526.8px" height="91.8189px">
  <defs>
    <linearGradient id="linear-gradient" x1="126.1" y1="-423.2" x2="53.6" y2="-368.6" gradientTransform="translate(0 -266.1) scale(1 -1)" gradientUnits="userSpaceOnUse">
      <stop offset="0" stop-color="#4d49c4"/>
      <stop offset="0.8" stop-color="#1dafba"/>
      <stop offset="0.9" stop-color="#1dba9b"/>
    </linearGradient>
    <style>
      .st0 {
        fill: #fff;
      }

      .st1 {
        fill: url(#linear-gradient);
        fill-rule: evenodd;
      }
    </style>
  </defs>
  <path class="st1" d="M131.1,113.1c4.3,0,7.8,3.5,7.8,7.8v16.4c.1,4.3-3.3,7.9-7.6,8-4.3.1-7.9-3.3-8-7.6v-16.8c0-4.3,3.5-7.8,7.8-7.8ZM111,123.8c4.3,0,7.8,3.5,7.8,7.8v28c-.1,4.3-3.7,7.7-8.1,7.6-4.2-.1-7.5-3.4-7.6-7.6v-28c0-4.3,3.6-7.8,7.9-7.8ZM90.8,91.7c4.3,0,7.8,3.5,7.8,7.8v70.1c-.3,4.3-4,7.6-8.3,7.3-3.9-.3-7.1-3.4-7.3-7.3v-70.1c0-4.3,3.5-7.8,7.8-7.8ZM70.6,85.1c4.3,0,7.8,3.5,7.9,7.8v38.7c-.1,4.3-3.7,7.7-8.1,7.6-4.2-.1-7.5-3.4-7.6-7.6v-38.7c0-4.3,3.5-7.8,7.8-7.8ZM50.4,112.3c4.3,0,7.8,3.5,7.8,7.8v19.7c.1,4.3-3.3,7.9-7.6,8-4.3.1-7.9-3.2-8-7.5v-20.2c0-4.3,3.5-7.8,7.8-7.8s0,0,0,0Z" transform="matrix(1, 0, 0, 1, 0, 7.105427357601002e-15)"/>
  <g transform="matrix(1, 0, 0, 1, 0, 7.105427357601002e-15)">
    <g>
      <path class="st0" d="M218.2,148.1v16.2h-55.5v-14l19.1-21.3c2.9-3.2,7-7.7,12.2-13.3-11.1.1-17.4.2-18.8.2h-11.5v-16.2h54.1v13.8l-19.2,21.5c-2.9,3.2-7,7.7-12.2,13.3,11.1-.1,17.4-.2,18.8-.2h13Z"/>
      <path class="st0" d="M225,164.3v-64.7h18.2v64.7h-18.2Z"/>
      <path class="st0" d="M285.1,127.3h30.6v37h-12.3l-1.8-8.4c-2,3.2-4.8,5.7-8.5,7.4-3.7,1.7-7.8,2.5-12.3,2.5-9.4,0-17-3.1-22.6-9.2-5.7-6.1-8.5-14.3-8.5-24.6s3-18.6,8.9-24.7c5.9-6.1,14.1-9.1,24.6-9.1s16,2.1,21.7,6.3c5.8,4.2,9.2,10,10.2,17.3h-18.5c-1.9-5.3-6.3-8-13.2-8s-8.3,1.6-10.9,4.8c-2.6,3.2-3.9,7.7-3.9,13.4s1.4,10.2,4.1,13.4,6.6,4.8,11.7,4.8,6-.8,8.3-2.5c2.3-1.7,3.8-3.9,4.5-6.7h-11.9v-13.8Z"/>
      <path class="st0" d="M330.3,156.6c-6.1-6.1-9.1-14.3-9.1-24.6s3-18.6,8.9-24.7c5.9-6.1,14-9.1,24.2-9.1s15.4,2.2,21.2,6.7c5.8,4.5,9.2,10.8,10.4,18.8h-18.3c-.8-3.2-2.5-5.7-4.8-7.4s-5.2-2.6-8.5-2.6-8.2,1.6-10.6,4.7c-2.4,3.1-3.6,7.7-3.6,13.5s1.2,10.4,3.6,13.5c2.4,3.1,6,4.7,10.6,4.7s6.6-1,9-3c2.4-2,3.9-4.7,4.6-8.3h18.2c-1,8.5-4.4,15-10.2,19.7-5.8,4.7-13,7.1-21.6,7.1s-18.1-3.1-24.1-9.2Z"/>
      <path class="st0" d="M434.2,120.9c3,3.1,4.4,7.4,4.4,13v30.3h-16.7v-26.8c0-4.7-2.1-7-6.4-7s-3.9.7-5.3,2c-1.4,1.4-2.1,3.3-2.1,5.8v26h-16.7v-64.7h16.7v23.5c3.8-4.5,8.5-6.8,14.3-6.8s8.7,1.5,11.7,4.6Z"/>
      <path class="st0" d="M477,164.3c-.7-1.5-1.1-3.1-1.2-4.8-3.2,3.9-8.2,5.9-14.9,5.9s-9.3-1.3-12.5-3.9c-3.2-2.6-4.8-6.2-4.8-10.7s1.5-7.8,4.4-10.2c3-2.4,7.7-3.9,14.3-4.4l7.5-.6c2-.2,3.4-.6,4.3-1.2.9-.6,1.3-1.5,1.3-2.7,0-2.5-2-3.7-5.9-3.7s-4.1.3-5.1,1c-1,.7-1.6,2-1.9,3.9h-16.5c.4-5.6,2.6-9.7,6.4-12.4,3.8-2.7,9.6-4.1,17.3-4.1,14.7,0,22.1,4.9,22.1,14.7v24.8c0,3.9.6,6.8,1.9,8.4h-16.8ZM475.5,145.9v-2.7c-.7.9-2.1,1.5-4.2,1.8l-5.4.5c-3.6.4-5.4,1.9-5.4,4.6s.5,2.5,1.6,3.3,2.5,1.2,4.4,1.2c5.9,0,8.9-2.9,8.9-8.8Z"/>
      <path class="st0" d="M498.3,164.3v-46.9h16.7v46.9h-16.7Z"/>
      <path class="st0" d="M565,120.9c3,3.1,4.4,7.4,4.4,13v30.3h-16.7v-26.8c0-4.7-2.1-7-6.4-7s-3.9.7-5.3,2c-1.4,1.4-2.1,3.3-2.1,5.8v26h-16.7v-46.9h16.3v6.2c3.8-4.8,8.6-7.3,14.6-7.3s8.7,1.5,11.7,4.6Z"/>
    </g>
    <circle class="st0" cx="506.7" cy="104.5" r="8.3"/>
  </g>
</svg>